<svg xmlns="http://www.w3.org/2000/svg" viewBox="0 0 856 446.07">
    <defs>
        <style>.cls-1{fill:#7c5ffa;}.cls-2{fill:#fff;}</style>
    </defs>
    <g id="Camada_2" data-name="Camada 2">
        <g id="Camada_1-2" data-name="Camada 1">
            <path class="cls-1"
                  d="M209.53,16.15V57.52l-91.94,59a16.12,16.12,0,0,0,0,26.77l91.94,59v41.38A16.11,16.11,0,0,1,184.43,257L7.14,143.29a16.12,16.12,0,0,1,0-26.77L184.43,2.77A16.11,16.11,0,0,1,209.53,16.15Z"/>
            <path class="cls-1" d="M670.22,72.76,646.47,57.52V16.15a16.11,16.11,0,0,1,25.1-13.38l53.86,34.56Z"/>
            <path class="cls-1"
                  d="M848.86,143.29,671.57,257a16.11,16.11,0,0,1-25.1-13.37V202.29l91.94-59a16.13,16.13,0,0,0,0-26.77l-13-8.33,55.23-35.43,68.2,43.76A16.12,16.12,0,0,1,848.86,143.29Z"/>
            <path class="cls-1"
                  d="M752,73.63,711.8,99.45l-52.2,33.48a8.39,8.39,0,0,1-13.08-7V104.39L683,81l11.46-7.35L727,52.75a13.27,13.27,0,0,1,14.28,0L752,59.67A8.41,8.41,0,0,1,752,73.63Z"/>
            <path class="cls-2"
                  d="M417.83,225.47l-94.71-106.4v86.71a19.69,19.69,0,0,1-19.69,19.69H272.6V54a19.68,19.68,0,0,1,19.68-19.69H329l91.79,104V54a19.69,19.69,0,0,1,19.69-19.69h42.64V205.78a19.68,19.68,0,0,1-19.68,19.69Z"/>
            <path class="cls-2" d="M516.45,225.47V54a19.68,19.68,0,0,1,19.68-19.69H583.4V225.47Z"/>
            <path class="cls-2"
                  d="M67.46,400.91,32.69,359.23a.78.78,0,0,0-1.39.5v40.68a.78.78,0,0,1-.78.78H26.78a.78.78,0,0,1-.78-.78V351.24a.78.78,0,0,1,.78-.79H32.1a.79.79,0,0,1,.6.29l34.7,41.68a.79.79,0,0,0,1.39-.5V351.24a.79.79,0,0,1,.79-.79h3.6a.78.78,0,0,1,.78.79v49.17a.78.78,0,0,1-.78.78H68.06A.78.78,0,0,1,67.46,400.91Z"/>
            <path class="cls-2"
                  d="M137.69,357.43c4.46,4.27,6.33,10.28,6.33,18.17,0,8.14-2.19,14.22-6.39,18.48-4.85,5.24-13,7.83-23.47,7.83-10.15,0-17.77-2.59-22.75-7.57-4.66-4.2-7.18-10.4-7.18-18.68,0-7.56,1.94-13.57,6.4-17.9,5.3-5.56,12.74-8.21,23.53-8.21S132.58,352.13,137.69,357.43Zm-6.59,31.94c3.29-3,4.78-7.89,4.78-13.64s-1.42-10.73-4.65-13.58c-3.82-3.36-8.92-5.3-17.13-5.3-7.95,0-13.38,2-16.94,5.37-3.1,2.91-4.72,7.75-4.72,13.57,0,6.21,1.88,11.06,5.76,14.22s8.85,4.66,16,4.66C121.92,394.67,127.28,392.92,131.1,389.37Z"/>
            <path class="cls-2"
                  d="M186.59,401.19H172.68a.8.8,0,0,1-.7-.42L146.8,351.59a.78.78,0,0,1,.7-1.14h11.61a.77.77,0,0,1,.7.44l19.33,38.46a.79.79,0,0,0,1.4,0l20-38.48a.78.78,0,0,1,.69-.43h10.65a.79.79,0,0,1,.7,1.15l-25.24,49.17A.8.8,0,0,1,186.59,401.19Z"/>
            <path class="cls-2"
                  d="M218.9,401.19H202.4a.79.79,0,0,1-.7-1.15L228,350.87a.78.78,0,0,1,.69-.42h19.93a.79.79,0,0,1,.7.43l24.8,49.18a.77.77,0,0,1-.7,1.13H256.46a.79.79,0,0,1-.71-.44l-4-8.48a.8.8,0,0,0-.71-.45H224.58a.81.81,0,0,0-.7.43l-4.28,8.51A.76.76,0,0,1,218.9,401.19Zm21-33.06-1.09-2.76a.79.79,0,0,0-1.46,0l-1.18,2.84,0,.06-5.78,11a.79.79,0,0,0,.69,1.15h13.67a.79.79,0,0,0,.7-1.14L240,368.19A.14.14,0,0,1,239.93,368.13Z"/>
            <path class="cls-2"
                  d="M305.08,400.41V351.24a.79.79,0,0,1,.79-.79h8.58a.78.78,0,0,1,.78.79v49.17a.78.78,0,0,1-.78.78h-8.58A.78.78,0,0,1,305.08,400.41Z"/>
            <path class="cls-2"
                  d="M368.9,400.92,340.72,368a.78.78,0,0,0-1.38.51v31.93a.78.78,0,0,1-.78.78H328.29a.78.78,0,0,1-.78-.78V351.24a.78.78,0,0,1,.78-.79h12.3a.78.78,0,0,1,.6.28l27.6,32.18a.78.78,0,0,0,1.38-.51V351.24a.79.79,0,0,1,.79-.79h10.13a.78.78,0,0,1,.78.79v49.17a.78.78,0,0,1-.78.78H369.5A.8.8,0,0,1,368.9,400.92Z"/>
            <path class="cls-2"
                  d="M422.13,402c-19.19,0-27.47-5.43-30.63-12.54a19.17,19.17,0,0,1-1.09-4.13.78.78,0,0,1,.77-.91h17.09a.78.78,0,0,1,.75.56,6.16,6.16,0,0,0,1.09,2.15c1.55,1.88,5.88,3,13.25,3,9.5,0,11.77-1.36,11.77-3.88,0-2.72-2.33-3.3-10.93-4.2-3.42-.33-8.85-.84-11.11-1-16.42-1.48-22.5-6.59-22.5-15.32,0-9.05,10.73-16,30.32-16,17.38,0,25.46,5.17,28.83,11.63a18.31,18.31,0,0,1,1.71,4.76.78.78,0,0,1-.77.93h-17a.79.79,0,0,1-.76-.61,5,5,0,0,0-.93-1.72c-1.42-1.87-5-3.1-11.51-3.1-9.11,0-11.5,1.1-11.5,3.43,0,2.58,3,3.16,13.18,4.26,3.95.33,10.22,1,12.35,1.23,13.12,1.42,18.75,6.08,18.75,14.93C453.23,396.15,442.75,402,422.13,402Z"/>
            <path class="cls-2"
                  d="M494.65,364v36.44a.78.78,0,0,1-.78.78H477.73a.78.78,0,0,1-.79-.78V364a.78.78,0,0,0-.78-.78H456.33a.78.78,0,0,1-.78-.79V351.24a.78.78,0,0,1,.78-.79h59a.78.78,0,0,1,.78.79V362.4a.78.78,0,0,1-.78.79H495.44A.78.78,0,0,0,494.65,364Z"/>
            <path class="cls-2"
                  d="M522.22,401.19h-16.5A.79.79,0,0,1,505,400l26.25-49.17a.78.78,0,0,1,.69-.42h19.93a.79.79,0,0,1,.7.43l24.8,49.18a.77.77,0,0,1-.7,1.13H559.78a.79.79,0,0,1-.71-.44l-4-8.48a.8.8,0,0,0-.71-.45H527.9a.81.81,0,0,0-.7.43l-4.28,8.51A.78.78,0,0,1,522.22,401.19Zm22.55-54.12-2.85-3.45a.79.79,0,0,0-1.21,0l-2.91,3.46a.76.76,0,0,1-.6.28H527a.78.78,0,0,1-.64-1.23l7-10.07a.76.76,0,0,1,.64-.33h14.7a.79.79,0,0,1,.64.33l7.05,10.07a.78.78,0,0,1-.65,1.23H545.37A.78.78,0,0,1,544.77,347.07Zm-1.53,21.06-1.08-2.76a.79.79,0,0,0-1.46,0l-1.18,2.84,0,.06-5.78,11a.79.79,0,0,0,.69,1.15h13.67a.79.79,0,0,0,.7-1.14l-5.5-11.12Z"/>
            <path class="cls-2"
                  d="M624.4,400.93l-23.54-26.44a.78.78,0,0,0-1.37.52v25.4a.79.79,0,0,1-.79.78H583.59a.78.78,0,0,1-.78-.78V351.24a.78.78,0,0,1,.78-.79h17.09a.78.78,0,0,1,.59.27L624,376.5a.79.79,0,0,0,1.38-.52V351.24a.78.78,0,0,1,.78-.79h15a.78.78,0,0,1,.78.79v49.17a.78.78,0,0,1-.78.78H625A.77.77,0,0,1,624.4,400.93Z"/>
            <path class="cls-2"
                  d="M718.29,386.33c-4,10.4-14,15.64-34.59,15.64-15,0-24.75-3.36-30.05-9.57-3.62-4.07-5.24-9.76-5.24-16.67,0-6.34,1.68-11.77,5-15.77,5.56-6.66,15.77-10.28,31-10.28,23.73,0,32.2,8.47,33.94,16.54a34.22,34.22,0,0,1,.79,5.5.78.78,0,0,1-.78.84H696.79a.78.78,0,0,1-.77-.66,7,7,0,0,0-.55-2c-1-2.33-4.46-4.2-11.25-4.2-5.56,0-9.76,1.29-11.5,4.39a12.49,12.49,0,0,0-1,5.82c0,2.65.26,4.46,1.1,5.82,1.81,3.17,6.33,4.33,11.44,4.33,5.82,0,9.7-.84,11.57-3.81a4.58,4.58,0,0,0,.67-2,.78.78,0,0,1,.78-.68H718.5a.78.78,0,0,1,.78.86A29.74,29.74,0,0,1,718.29,386.33Z"/>
            <path class="cls-2"
                  d="M724.61,400.41V351.24a.79.79,0,0,1,.79-.79h21.51a.78.78,0,0,1,.78.79v49.17a.78.78,0,0,1-.78.78H725.4A.78.78,0,0,1,724.61,400.41Z"/>
            <path class="cls-2"
                  d="M773.63,401.19H751.72A.77.77,0,0,1,751,400l26.62-49.18a.79.79,0,0,1,.69-.41h26.07a.79.79,0,0,1,.7.43l24.8,49.18a.77.77,0,0,1-.7,1.13H806.88a.78.78,0,0,1-.71-.45L803,393.83a.78.78,0,0,0-.71-.46h-24a.79.79,0,0,0-.71.45l-3.32,6.93A.79.79,0,0,1,773.63,401.19Zm18.58-29.77-.84-2.24a.79.79,0,0,0-1.46,0l-1,2.33,0,.07-4.27,7.92a.78.78,0,0,0,.69,1.16h10.33a.78.78,0,0,0,.69-1.14l-4.11-8Z"/>
        </g>
    </g>
</svg>